<?xml version="1.0"?>
<svg version="1.1" xmlns="http://www.w3.org/2000/svg" width="400px" height="200px" style="border:2px solid red"><path fill="#ff0000" d="M38.6,126.22l3,5.28c-1.5,1.32-6.18,5.1-12.9,5.1c-9.9,0-15.6-6.12-15.6-16.32c0-10.68,6-17.28,16.5-17.28c5.16,0,10.5,2.1,10.5,2.1l-0.3,9.84l-5.4,0l-0.84-4.26s-1.74-0.48-4.14-0.48c-4.32,0-7.02,2.88-7.02,8.88c0,6.54,2.52,10.32,7.5,10.32c4.2,0,6.84-2.1,8.7-3.18z M61.7306,129.7l5.4,1.5l0,4.8l-19.26,0l0-4.8l4.8-1.5l0-33.72l-4.8-1.2l0-4.8l13.86-0.48l0,40.2z M94.1612,136l-1.08-3.9s-4.62,4.5-9.72,4.5c-5.82,0-9.36-3.42-9.36-9.42c0-7.08,5.34-9.9,14.46-9.9l4.2,0l0-3.3c0-3.06-1.62-4.38-4.62-4.38c-3.06,0-5.28,0.9-5.28,0.9l-0.9,3.78l-5.4,0l-0.42-8.88s7.26-2.4,13.02-2.4c9.12,0,12.6,3.18,12.6,11.88l0,14.82l4.5,1.08l0,4.8z M92.6612,122.38l-3.42,0c-4.68,0-6.54,1.2-6.54,3.9c0,2.28,1.26,3.6,3.54,3.6c3.18,0,6.42-3.48,6.42-3.48l0-4.02z M112.7318,108.7l0-4.8l13.8-0.3l0,20.7c0,3.3,0.96,4.8,3.66,4.8c3.9,0,6.78-3.24,6.78-3.24l0-15.66l-4.8-1.5l0-4.8l13.8-0.3l0,26.1l4.8,1.2l0,4.68l-12.66,0.42l-0.6-4.2s-4.8,4.8-10.5,4.8c-6,0-9.48-4.02-9.48-10.74l0-15.66z M180.4424,136l-0.54-3.18c-0.84,0.84-3.9,3.78-9.06,3.78c-8.4,0-12.3-6.12-12.3-16.02c0-11.28,5.4-17.58,16.38-17.58c1.44,0,3.18,0.3,4.5,0.6l0-7.62l-4.8-1.2l0-4.8l13.8-0.48l0,40.08l4.8,1.2l0,4.8z M179.4224,125.98l0-14.88c-1.14-0.54-2.94-0.9-4.68-0.9c-5.1,0-6.9,3.9-6.9,9.9c0,6.06,1.68,9.3,5.76,9.3c3.84,0,5.82-3.42,5.82-3.42z M204.413,93.7c0-3.42,2.46-5.4,5.16-5.4c3.12,0,5.04,1.62,5.04,5.4c0,3.54-2.58,5.46-5.04,5.46c-3.24,0-5.16-1.92-5.16-5.46z M214.493,129.7l4.2,1.5l0,4.8l-18,0l0-4.8l4.8-1.5l0-19.5l-4.8-1.5l0-4.8l13.8-0.3l0,26.1z M225.5636,108.7l0-4.8l13.8-0.3l0,20.7c0,3.3,0.96,4.8,3.66,4.8c3.9,0,6.78-3.24,6.78-3.24l0-15.66l-4.8-1.5l0-4.8l13.8-0.3l0,26.1l4.8,1.2l0,4.68l-12.66,0.42l-0.6-4.2s-4.8,4.8-10.5,4.8c-6,0-9.48-4.02-9.48-10.74l0-15.66z M314.8448,126.22l3,5.28c-1.5,1.32-6.18,5.1-12.9,5.1c-9.9,0-15.6-6.12-15.6-16.32c0-10.68,6-17.28,16.5-17.28c5.16,0,10.5,2.1,10.5,2.1l-0.3,9.84l-5.4,0l-0.84-4.26s-1.74-0.48-4.14-0.48c-4.32,0-7.02,2.88-7.02,8.88c0,6.54,2.52,10.32,7.5,10.32c4.2,0,6.84-2.1,8.7-3.18z M326.9354,113.32c0-3.48,2.52-5.46,5.22-5.46c3.3,0,4.98,1.98,4.98,5.46c0,3.42-2.46,5.4-5.16,5.4c-3.3,0-5.04-1.98-5.04-5.4z M326.9354,131.32c0-3.42,2.52-5.4,5.22-5.4c3.3,0,4.98,1.98,4.98,5.4c0,3.48-2.46,5.46-5.16,5.46c-3.3,0-5.04-1.98-5.04-5.46z M365.846,136l-20.04-42.3l9.18,0l19.98,42.3l-9.12,0z"/><path fill="#" d=""/></svg>
